<svg width="126" height="568" viewBox="0 0 126 568" fill="none" xmlns="http://www.w3.org/2000/svg">
<mask id="path-1-inside-1_5_39" fill="white">
<path d="M123 426.371C123 423.388 122.431 420.435 121.325 417.679C120.22 414.923 118.599 412.42 116.556 410.311C114.513 408.202 112.088 406.529 109.419 405.387C106.75 404.246 103.889 403.658 101 403.658C98.1109 403.658 95.2501 404.246 92.581 405.387C89.9118 406.529 87.4865 408.202 85.4436 410.311C83.4008 412.42 81.7803 414.923 80.6746 417.679C79.569 420.435 79 423.388 79 426.371L101 426.371H123Z"/>
</mask>
<path d="M123 426.371C123 423.388 122.431 420.435 121.325 417.679C120.22 414.923 118.599 412.42 116.556 410.311C114.513 408.202 112.088 406.529 109.419 405.387C106.75 404.246 103.889 403.658 101 403.658C98.1109 403.658 95.2501 404.246 92.581 405.387C89.9118 406.529 87.4865 408.202 85.4436 410.311C83.4008 412.42 81.7803 414.923 80.6746 417.679C79.569 420.435 79 423.388 79 426.371L101 426.371H123Z" fill="#303030" stroke="black" stroke-width="2" mask="url(#path-1-inside-1_5_39)"/>
<mask id="path-2-inside-2_5_39" fill="white">
<path d="M47 426.371C47 423.388 46.431 420.435 45.3253 417.679C44.2197 414.923 42.5992 412.42 40.5563 410.311C38.5135 408.202 36.0882 406.529 33.419 405.387C30.7499 404.246 27.8891 403.658 25 403.658C22.1109 403.658 19.2501 404.246 16.581 405.387C13.9118 406.529 11.4865 408.202 9.44365 410.311C7.40076 412.42 5.78025 414.923 4.67465 417.679C3.56905 420.435 3 423.388 3 426.371L25 426.371H47Z"/>
</mask>
<path d="M47 426.371C47 423.388 46.431 420.435 45.3253 417.679C44.2197 414.923 42.5992 412.42 40.5563 410.311C38.5135 408.202 36.0882 406.529 33.419 405.387C30.7499 404.246 27.8891 403.658 25 403.658C22.1109 403.658 19.2501 404.246 16.581 405.387C13.9118 406.529 11.4865 408.202 9.44365 410.311C7.40076 412.42 5.78025 414.923 4.67465 417.679C3.56905 420.435 3 423.388 3 426.371L25 426.371H47Z" fill="#303030" stroke="black" stroke-width="2" mask="url(#path-2-inside-2_5_39)"/>
<rect x="28.5" y="72.7662" width="69" height="147.662" fill="#D9D9D9" stroke="black"/>
<path d="M97.5 35V71.7662H28.5V35C28.5 15.9462 43.9462 0.5 63 0.5C82.0538 0.5 97.5 15.9462 97.5 35Z" fill="white" stroke="black"/>
<rect x="28.5" y="221.428" width="69" height="184.827" fill="white" stroke="black"/>
<rect x="53.5" y="359.766" width="19" height="12.4209" stroke="black"/>
<path d="M49.5 266.576V411.417H0.5V266.576C0.5 253.045 11.469 242.076 25 242.076C38.531 242.076 49.5 253.045 49.5 266.576Z" fill="#D9D9D9" stroke="black"/>
<path d="M125.5 266.576V411.417H76.5V266.576C76.5 253.045 87.469 242.076 101 242.076C114.531 242.076 125.5 253.045 125.5 266.576Z" fill="#D9D9D9" stroke="black"/>
<rect x="53.5" y="313.309" width="19" height="12.4209" stroke="black"/>
<path d="M76 35.6169C76 42.7921 70.3738 48.554 63.5 48.554C56.6262 48.554 51 42.7921 51 35.6169C51 28.4417 56.6262 22.6799 63.5 22.6799C70.3738 22.6799 76 28.4417 76 35.6169Z" fill="#D2FAFF" stroke="black" stroke-width="2"/>
<path d="M35 61.4263H92" stroke="black" stroke-linecap="round" stroke-linejoin="round" stroke-dasharray="2 2"/>
</svg>
