<svg width="126" height="568" viewBox="0 0 126 568" fill="none" xmlns="http://www.w3.org/2000/svg">
<g clip-path="url(#clip0_5_39)">
<path fill-rule="evenodd" clip-rule="evenodd" d="M38.5983 463.896C38.3016 432.251 32.4654 407 25.3063 407C17.9574 407 12 434.499 12 466.423C12 470.69 11.9829 479.217 13.4156 493.605C14.273 502.216 14.8108 507.625 15.1143 512.57C15.281 515.287 15.6053 519.605 16.5298 512.57C17.0749 508.422 17.096 502.455 17.096 502.455C17.096 502.455 19.1243 509.406 20.4934 522.684C22.5005 542.15 20.8991 553.786 20.3518 561.878C20.1624 564.677 20.0435 569.708 21.3427 567.567C22.6666 565.386 26.1664 554.445 27.9959 542.913C30.6069 526.455 31.5348 510.673 31.5348 510.673C31.5348 510.673 32.3708 515.307 32.6672 520.156C33.002 525.631 33.007 531.053 34.0827 525.212C35.1057 519.657 36.625 509.219 37.4802 499.295C39.0329 481.272 38.5983 463.896 38.5983 463.896Z" fill="url(#paint0_linear_5_39)"/>
<path fill-rule="evenodd" clip-rule="evenodd" d="M25.3063 407C20.2246 407 16.1051 425.396 16.1051 448.09C16.1051 461.783 17.3408 470.097 19.9124 481.37C21.559 488.589 23.1001 497.455 23.7551 503.492C23.8841 504.68 24.1775 510.874 25.309 503.622C25.9025 499.819 26.833 493.056 27.4296 487.284C28.4582 477.332 28.7037 467.687 28.7037 467.687C28.7037 467.687 29.7117 470.339 30.4023 477.169C30.625 479.37 31.0752 487.703 32.3336 479.372C33.257 473.257 34.5254 462.264 34.5075 448.09C34.5075 425.396 30.3879 407 25.3063 407Z" fill="#FC9502"/>
<path fill-rule="evenodd" clip-rule="evenodd" d="M24.8009 458.874C26.304 458.874 26.304 446.359 28.2133 429.649C29.4846 418.523 27.583 407 24.8009 407C22.0188 407 20.576 417.14 20.576 429.649C20.576 442.158 23.2978 458.874 24.8009 458.874Z" fill="#FCE202"/>
<path fill-rule="evenodd" clip-rule="evenodd" d="M88.0543 463.798C88.3422 432.335 94.0052 407.229 100.952 407.229C108.083 407.229 113.863 434.57 113.863 466.311C113.863 470.553 113.88 479.032 112.49 493.337C111.658 501.899 111.136 507.277 110.841 512.193C110.68 514.895 110.365 519.188 109.468 512.193C108.939 508.069 108.918 502.137 108.918 502.137C108.918 502.137 106.95 509.047 105.622 522.25C103.674 541.604 105.228 553.173 105.759 561.219C105.943 564.002 106.058 569.003 104.798 566.875C103.513 564.706 100.117 553.828 98.3421 542.363C95.8085 525.999 94.9082 510.308 94.9082 510.308C94.9082 510.308 94.097 514.915 93.8093 519.736C93.4845 525.179 93.4797 530.571 92.4359 524.763C91.4433 519.24 89.969 508.861 89.1393 498.994C87.6326 481.075 88.0543 463.798 88.0543 463.798Z" fill="url(#paint1_linear_5_39)"/>
<path fill-rule="evenodd" clip-rule="evenodd" d="M100.802 407.22C106.071 407.342 110.165 426.442 109.947 449.883C109.815 464.027 108.454 472.585 105.679 484.168C103.903 491.585 102.219 500.706 101.482 506.926C101.337 508.151 100.973 514.541 99.8699 507.023C99.2911 503.081 98.3914 496.073 97.8282 490.096C96.8575 479.792 96.6957 469.824 96.6957 469.824C96.6957 469.824 95.625 472.539 94.8433 479.578C94.5912 481.846 94.0443 490.442 92.8197 481.806C91.9211 475.469 90.7116 464.083 90.8665 449.443C91.0847 426.002 95.533 407.099 100.802 407.22Z" fill="#FC9502"/>
<path fill-rule="evenodd" clip-rule="evenodd" d="M100.712 462.196C99.1003 462.196 99.1003 448.88 97.053 431.1C95.6898 419.261 97.7289 407 100.712 407C103.695 407 105.242 417.79 105.242 431.1C105.242 444.409 102.324 462.196 100.712 462.196Z" fill="#FCE202"/>
<mask id="path-7-inside-1_5_39" fill="white">
<path d="M123 426.371C123 423.388 122.431 420.435 121.325 417.679C120.22 414.923 118.599 412.42 116.556 410.311C114.513 408.202 112.088 406.529 109.419 405.387C106.75 404.246 103.889 403.658 101 403.658C98.1109 403.658 95.2501 404.246 92.581 405.387C89.9118 406.529 87.4865 408.202 85.4436 410.311C83.4008 412.42 81.7803 414.923 80.6746 417.679C79.569 420.435 79 423.388 79 426.371L101 426.371H123Z"/>
</mask>
<path d="M123 426.371C123 423.388 122.431 420.435 121.325 417.679C120.22 414.923 118.599 412.42 116.556 410.311C114.513 408.202 112.088 406.529 109.419 405.387C106.75 404.246 103.889 403.658 101 403.658C98.1109 403.658 95.2501 404.246 92.581 405.387C89.9118 406.529 87.4865 408.202 85.4436 410.311C83.4008 412.42 81.7803 414.923 80.6746 417.679C79.569 420.435 79 423.388 79 426.371L101 426.371H123Z" fill="#303030" stroke="black" stroke-width="2" mask="url(#path-7-inside-1_5_39)"/>
<mask id="path-8-inside-2_5_39" fill="white">
<path d="M47 426.371C47 423.388 46.431 420.435 45.3253 417.679C44.2197 414.923 42.5992 412.42 40.5563 410.311C38.5135 408.202 36.0882 406.529 33.419 405.387C30.7499 404.246 27.8891 403.658 25 403.658C22.1109 403.658 19.2501 404.246 16.581 405.387C13.9118 406.529 11.4865 408.202 9.44365 410.311C7.40076 412.42 5.78025 414.923 4.67465 417.679C3.56905 420.435 3 423.388 3 426.371L25 426.371H47Z"/>
</mask>
<path d="M47 426.371C47 423.388 46.431 420.435 45.3253 417.679C44.2197 414.923 42.5992 412.42 40.5563 410.311C38.5135 408.202 36.0882 406.529 33.419 405.387C30.7499 404.246 27.8891 403.658 25 403.658C22.1109 403.658 19.2501 404.246 16.581 405.387C13.9118 406.529 11.4865 408.202 9.44365 410.311C7.40076 412.42 5.78025 414.923 4.67465 417.679C3.56905 420.435 3 423.388 3 426.371L25 426.371H47Z" fill="#303030" stroke="black" stroke-width="2" mask="url(#path-8-inside-2_5_39)"/>
<rect x="28.5" y="72.7662" width="69" height="147.662" fill="#D9D9D9" stroke="black"/>
<path d="M97.5 35V71.7662H28.5V35C28.5 15.9462 43.9462 0.5 63 0.5C82.0538 0.5 97.5 15.9462 97.5 35Z" fill="white" stroke="black"/>
<rect x="28.5" y="221.428" width="69" height="184.827" fill="white" stroke="black"/>
<rect x="53.5" y="359.766" width="19" height="12.4209" stroke="black"/>
<path d="M49.5 266.576V411.417H0.5V266.576C0.5 253.045 11.469 242.076 25 242.076C38.531 242.076 49.5 253.045 49.5 266.576Z" fill="#D9D9D9" stroke="black"/>
<path d="M125.5 266.576V411.417H76.5V266.576C76.5 253.045 87.469 242.076 101 242.076C114.531 242.076 125.5 253.045 125.5 266.576Z" fill="#D9D9D9" stroke="black"/>
<rect x="53.5" y="313.309" width="19" height="12.4209" stroke="black"/>
<path d="M76 35.6169C76 42.7921 70.3738 48.554 63.5 48.554C56.6262 48.554 51 42.7921 51 35.6169C51 28.4417 56.6262 22.6799 63.5 22.6799C70.3738 22.6799 76 28.4417 76 35.6169Z" fill="#D2FAFF" stroke="black" stroke-width="2"/>
<path d="M35 61.4263H92" stroke="black" stroke-linecap="round" stroke-linejoin="round" stroke-dasharray="2 2"/>
</g>
<defs>
<linearGradient id="paint0_linear_5_39" x1="25.3263" y1="406.881" x2="25.3263" y2="567.962" gradientUnits="userSpaceOnUse">
<stop stop-color="#FF4C0D"/>
<stop offset="1" stop-color="#FC9502"/>
</linearGradient>
<linearGradient id="paint1_linear_5_39" x1="100.932" y1="407.111" x2="100.932" y2="567.267" gradientUnits="userSpaceOnUse">
<stop stop-color="#FF4C0D"/>
<stop offset="1" stop-color="#FC9502"/>
</linearGradient>
<clipPath id="clip0_5_39">
<rect width="126" height="568" fill="white"/>
</clipPath>
</defs>
</svg>
